#define img_width 70
#define img_height 34
static unsigned short img_bits[] = {
   0xffff, 0xffff, 0xffff, 0xffff, 0x003f, 0xffff, 0xffff, 0xffff, 0xffff,
   0x003f, 0xffff, 0xffff, 0xffff, 0xffff, 0x003f, 0xffff, 0xffff, 0xffff,
   0xffff, 0x003f, 0xffff, 0xffff, 0xffff, 0xffff, 0x003f, 0xffff, 0xffff,
   0xffff, 0xffff, 0x003f, 0x7ebf, 0xfd1f, 0xffeb, 0xffaf, 0x003f, 0x001f,
   0xf80a, 0x1fc0, 0x8206, 0x003f, 0x000f, 0x7004, 0x1f80, 0x8000, 0x003f,
   0x000f, 0x2000, 0x0f81, 0x0004, 0x003f, 0x002f, 0x0040, 0x1f86, 0x0008,
   0x003e, 0x017f, 0x00e0, 0x3aad, 0x0638, 0x003e, 0x07ff, 0x01f8, 0x381e,
   0x0e00, 0x003f, 0x0fff, 0x03f0, 0x703c, 0x0d04, 0x003e, 0x0fff, 0x07f0,
   0x3814, 0x1700, 0x003e, 0x0fff, 0x07f0, 0x7014, 0x0a00, 0x003e, 0x0fff,
   0x07f0, 0x2010, 0x0000, 0x003e, 0x0fff, 0x0fe0, 0x0000, 0x0001, 0x003e,
   0x07ff, 0x47c0, 0x0080, 0x0001, 0x003e, 0x0f1f, 0xe780, 0x8180, 0x02c3,
   0x003e, 0x070f, 0xf100, 0xc0c1, 0x1fc3, 0x003e, 0x0c0f, 0xe001, 0xc3c3,
   0x1fc7, 0x003c, 0x800f, 0xf802, 0xe3e1, 0x1fe7, 0x003c, 0xc03f, 0xf807,
   0xe3e7, 0x3fe7, 0x003e, 0xfabf, 0xff5f, 0xffff, 0xffff, 0x003f, 0xffff,
   0xffff, 0xffff, 0xffff, 0x003f, 0xffff, 0xffff, 0xffff, 0xffff, 0x003f,
   0xffff, 0xffff, 0xffff, 0xffff, 0x003f, 0xffff, 0xffff, 0xffff, 0xffff,
   0x003f, 0xffff, 0xffff, 0xffff, 0xffff, 0x003f, 0xffff, 0xffff, 0xffff,
   0xffff, 0x003f, 0xffff, 0xffff, 0xffff, 0xffff, 0x003f, 0xffff, 0xffff,
   0xffff, 0xffff, 0x003f, 0xffff, 0xffff, 0xffff, 0xffff, 0x003f };
